<svg xmlns="http://www.w3.org/2000/svg" viewBox="0 0 16 16">
    <path d="m5.32 4.006-.14.121C3.56 5.527 2.024 6.851.58 8.139l-.422.377.426.373c1.684 1.48 3.414 2.828 4.57 3.984l.147.147h10.707V4.006H5.32zm.373 1h9.315v7.014H5.693c-1.103-1.08-2.57-2.26-4.02-3.508a446.873 446.873 0 0 1 4.02-3.506zm2.9 1.379-.706.707 1.38 1.38L7.804 9.94l.707.707L9.975 9.18l1.447 1.447.707-.707-1.447-1.447 1.363-1.364-.707-.707-1.363 1.364-1.381-1.381z"
          style="line-height:normal;text-indent:0;text-align:start;text-decoration-line:none;text-decoration-style:solid;text-decoration-color:#000;text-transform:none;block-progression:tb;white-space:normal;isolation:auto;mix-blend-mode:normal;solid-color:#000;solid-opacity:1"/>
</svg>